<mxfile host="65bd71144e">
    <diagram id="HIP3nbAZw_EuaXWnEj3U" name="Page-1">
        <mxGraphModel dx="911" dy="645" grid="1" gridSize="10" guides="1" tooltips="1" connect="1" arrows="1" fold="1" page="1" pageScale="1" pageWidth="850" pageHeight="1100" math="0" shadow="0">
            <root>
                <mxCell id="0"/>
                <mxCell id="1" parent="0"/>
                <mxCell id="7" value="http://ics2o.mths.ca" style="swimlane;whiteSpace=wrap;html=1;" parent="1" vertex="1">
                    <mxGeometry x="40" y="40" width="760" height="480" as="geometry"/>
                </mxCell>
                <mxCell id="8" value="http://ics2o.mths.ca" style="swimlane;whiteSpace=wrap;html=1;" vertex="1" parent="1">
                    <mxGeometry x="40" y="40" width="760" height="480" as="geometry"/>
                </mxCell>
                <mxCell id="9" value="http://ics2o.mths.ca" style="swimlane;whiteSpace=wrap;html=1;" vertex="1" parent="1">
                    <mxGeometry x="40" y="40" width="760" height="480" as="geometry"/>
                </mxCell>
                <mxCell id="10" value="&lt;span style=&quot;font-size: 26px;&quot;&gt;Volume of a Sphere, with JS&lt;/span&gt;" style="text;html=1;align=center;verticalAlign=middle;resizable=0;points=[];autosize=1;strokeColor=none;fillColor=none;" vertex="1" parent="9">
                    <mxGeometry x="15" y="40" width="350" height="40" as="geometry"/>
                </mxCell>
                <mxCell id="11" value="&lt;font color=&quot;#000000&quot;&gt;&lt;font style=&quot;font-size: 19px;&quot;&gt;&lt;span style=&quot;font-size: 19px;&quot;&gt;Formula&lt;/span&gt;&lt;br&gt;&lt;font style=&quot;font-size: 19px;&quot;&gt;V = 4/3&amp;nbsp;&lt;/font&gt;&lt;/font&gt;&lt;span style=&quot;font-size: 19px;&quot;&gt;Ï€ r&lt;sup&gt;3&lt;/sup&gt;&lt;/span&gt;&lt;/font&gt;" style="text;html=1;align=left;verticalAlign=middle;resizable=0;points=[];autosize=1;strokeColor=none;fillColor=none;fontSize=26;" vertex="1" parent="9">
                    <mxGeometry x="20" y="80" width="120" height="80" as="geometry"/>
                </mxCell>
                <mxCell id="12" value="&lt;font style=&quot;font-size: 19px;&quot;&gt;Please enter radius :&lt;br&gt;&lt;/font&gt;" style="text;html=1;align=left;verticalAlign=middle;resizable=0;points=[];autosize=1;strokeColor=none;fillColor=none;fontSize=26;" vertex="1" parent="9">
                    <mxGeometry x="20" y="160" width="200" height="40" as="geometry"/>
                </mxCell>
                <mxCell id="13" value="&lt;font style=&quot;font-size: 19px;&quot;&gt;Length :&lt;br&gt;&lt;br&gt;&lt;/font&gt;" style="text;html=1;align=left;verticalAlign=middle;resizable=0;points=[];autosize=1;strokeColor=none;fillColor=none;fontSize=26;" vertex="1" parent="9">
                    <mxGeometry x="20" y="200" width="90" height="80" as="geometry"/>
                </mxCell>
                <mxCell id="14" value="..." style="rounded=1;whiteSpace=wrap;html=1;fontSize=19;" vertex="1" parent="9">
                    <mxGeometry x="100" y="215.55" width="140" height="20" as="geometry"/>
                </mxCell>
                <mxCell id="18" value="Calculate Area" style="rounded=1;whiteSpace=wrap;html=1;fontSize=19;" vertex="1" parent="9">
                    <mxGeometry x="20" y="260" width="140" height="20" as="geometry"/>
                </mxCell>
                <mxCell id="19" value="&lt;font style=&quot;font-size: 19px;&quot;&gt;Volume is : ...&lt;br&gt;&lt;/font&gt;" style="text;html=1;align=left;verticalAlign=middle;resizable=0;points=[];autosize=1;strokeColor=none;fillColor=none;fontSize=26;" vertex="1" parent="9">
                    <mxGeometry x="20" y="300" width="140" height="40" as="geometry"/>
                </mxCell>
                <mxCell id="23" value="" style="shape=image;verticalLabelPosition=bottom;labelBackgroundColor=default;verticalAlign=top;aspect=fixed;imageAspect=0;image=data:image/jpeg,/9j/4AAQSkZJRgABAQAAAQABAAD/4gHYSUNDX1BST0ZJTEUAAQEAAAHIAAAAAAQwAABtbnRyUkdCIFhZWiAAAAAAAAAAAAAAAABhY3NwAAAAAAAAAAAAAAAAAAAAAAAAAAAAAAAAAAAAAQAA9tYAAQAAAADTLQAAAAAAAAAAAAAAAAAAAAAAAAAAAAAAAAAAAAAAAAAAAAAAAAAAAAAAAAAAAAAAAAAAAAlkZXNjAAAA8AAAACRyWFlaAAABFAAAABRnWFlaAAABKAAAABRiWFlaAAABPAAAABR3dHB0AAABUAAAABRyVFJDAAABZAAAAChnVFJDAAABZAAAAChiVFJDAAABZAAAAChjcHJ0AAABjAAAADxtbHVjAAAAAAAAAAEAAAAMZW5VUwAAAAgAAAAcAHMAUgBHAEJYWVogAAAAAAAAb6IAADj1AAADkFhZWiAAAAAAAABimQAAt4UAABjaWFlaIAAAAAAAACSgAAAPhAAAts9YWVogAAAAAAAA9tYAAQAAAADTLXBhcmEAAAAAAAQAAAACZmYAAPKnAAANWQAAE9AAAApbAAAAAAAAAABtbHVjAAAAAAAAAAEAAAAMZW5VUwAAACAAAAAcAEcAbwBvAGcAbABlACAASQBuAGMALgAgADIAMAAxADb/2wBDAAEBAQEBAQEBAQEBAQEBAQEBAQEBAQEBAQEBAQEBAQEBAQEBAQEBAQEBAQEBAQEBAQEBAQEBAQEBAQEBAQEBAQH/2wBDAQEBAQEBAQEBAQEBAQEBAQEBAQEBAQEBAQEBAQEBAQEBAQEBAQEBAQEBAQEBAQEBAQEBAQEBAQEBAQEBAQEBAQH/wAARCAF8AYEDAREAAhEBAxEB/8QAHwABAQABBAMBAQAAAAAAAAAAAAIKAwQICQEGBwUL/8QAQxAAAQIFAwMCBAMFBgUEAgMAAQIDAAQFBhEHCBIJITETUQoiQeEUMmEVI0JxoRYXgZGx0SRScsHwGBkzYhrxJnOC/8QAFAEBAAAAAAAAAAAAAAAAAAAAAP/EABQRAQAAAAAAAAAAAAAAAAAAAAD/2gAMAwEAAhEDEQA/AM/iAQCAQCAQCAQCAQCAQCAQCAQCAQCAQCAQCAQCAQCAQCAQCAQCAQCAQCAQCAQCAQCAQCAQCAQCAQEFeCRjwceftAWDkA+4zAICCvBIx4OPP2gLByAfcZgEBBXgkY8HHn7QFg5APuMwCAgrwSMeDjz9oCwcgH3GYBAIBAIBAIBAIBAIBAIBAIBAIBAIBAIBAIBAIBAIBAIBAIBAIBAIBAIBAICCjJJz5OfH3gLAwAPYYgEBBRkk58nPj7wFgYAHsMQCAgoySc+Tnx94CwMAD2GIBAQUZJOfJz4+8BYGAB7DEAgEAgEAgEAgEAgEAgEAgEAgEAgEAgEAgEAgEAgEAgEAgEAgEAgEAgEAgEAgEAgEAgEAgEAgEAgEAgEAgEAgEAgEAgEAgEAgEAgEAgEAgEAgEAgEAgEAgEAgEAgEAgEAgEAgEAgEAgEAgEAgEAgEAgEAgEAgEAgEAgEAgEAgEAgEAgEAgEAgEAgEAgEAgEAgEAgEAgEAgEAgEAgEAgEAgEAgEAgEAgEAgEAgEAgEAgEAgEAgEAgEAgEAgEAgEAgEAgEAgEAgEAgEAgEAgEAgEAgEAgEAgEAgEAgEAgEAgEAgEAgEAgEBPJI+v9D/ALQDJ+icj6HI7iAch9Tg/Ud+x/ygHNPv/Q/7QAKUT+XAz2OfI98Y+v8Aj+uIBlX/AC/1EAJUBkJz+mfH9D/SA8juASMEgdvb9IDzAIBAIBAIBAIBAIBAIBAIBAIBAIBAIBAIBAIBAIBAIBAIBAIBAIBAIBAQV4JGPBx5+0AKwAP1/WA8FZAyEKPzEYA+gP5v5Edx/lAPUGSkDKwCeH14hWOWcY9jx7qAIBGe0BslPq54KHEgq8FHNZCieKvTZDq22zjsuZEuB4XwOQA0zPMoYemXZltmXYSpb0wt1kS7KEjJLz/qBpsJGOR5FI8gkd4D4ndO6TbTY6nUXpuI0OtN5krS81c2rWnlvraW2oocbc/bNySAbWhaVJWh4trQpJC0JIIAfL19RDYI0v0n98mz+VeyQWJncvos06FA4KeIvVaSUnIPBShkdiQQYD2Wkb4dmVxuts27u92w15bgCUooevWl1YeUojsEM0y6ZonPbBJSc5+WA+825fFp3jKCes667eu2R4pP42265Sa5LEKAUlXq0ucm08FAgpV9QQcYIyH7/wCKUhTYWrJec9NtPqNpJWCQsAvLYCwgpOUsl17HdTSSCkBu0zKSlClApCiEqKylviVHCchZSQVEH92ri+jIC2kqJSA1QvPYpwo+ATjP8iQD3/VIPuBAVzH17H6jucH6jOO/84CvMBBXgkY8HHn7QFg5APuMwCAgrwSMeDjz9oCwcgH3GYBAQV4JGPBx5+0BYOQD7jMAgIK8EjHg48/aAsHIB9xmAQEFeCRjwceftAWDkA+4zAICCvBIx4OPP2gLByAfcZgEAgEAgEAgEAgEAgEAgEAgEAgPAJ75GPbvnP8A4IDbKWAvB/UqSOTjoHIhKvSaS4fTXjIWpScdgpIOQA2kzONS/wA0wtDLbbTjjrrjrbKWks//ACLP4lTB9BHEqMwQlkJ+Yrx4DqT3l9cnpn7F3KpS9aNz1oVG/KYFtv6VaXPO6o6iNzCG1lEtOUayW6xKUB119syqHboqVBkmnvlm5uXKVABjyXv8WJub3IXFM6d9LfplamauV95S2qfc+pUrdOoNSS4t1aG5mZ0v0aRUqZR2mU4dXOz+qplcKKSw2gYgPW2dL/jCt+DKZu6tTLE2N2JWW3ZqUpzddsbRlcpLvOc1jjptTtT9wkjMybTqUJauqoSL6VNhqpTKZsPOQG/k/hSN8Wv7rdw7y+sXfd4VZ8h6pSNvW5qLrGuZD+HZpbN4ahawWt+ELji1qRMG1nQ4kh0yyCotpDkFaXwXmyVuXSrUPeHvKu55QSp42zUtJrRkn8pBXmWreneoKy2tRVx5TbqgkgKcdUCtQfTmPg0Ole22EvambzZ1YSlKX5nVLSoO4SMA8ZfQ6Xl0E+SllhlpJ7NtNoASA9erXwYPTZmW3F21uB3u2vOklTTjd/6LVGSSvOUl6Uc0JlZqYCewJNRQ4sD5nColRDj5dnwa1OtyZNb279TXXLTesSSlO05+8NMKfcTiHkqJabNesLUTTqdkEtkJSXmaa4BxyhlHZsB6SOkD8TvtAD9S2n9UGS1wt2iBT9GtO5tWr0D843LK4S8imwtwFsXXpWwh9httBaVeaWpfkGRUH0N+ssNqett8Rh0/vS/9wjpu0/WiwKI4hmvamWtZ1btp6acwEKbVq7oTNakaDybi0pcmWEGwVB7kClcsytKWw7MtpPxZHTP1/m5K2NcZrUXZ7f7zkrLP03WShKqdiibmUIWUSepNnsz0nKyaEuIcRVL4t+wJR9haXuLGS0gMkPTjVnTnWC2aXemlV9WhqLZ9aYlZml3LZVxUu56LPMTeFtuytVoz07TZlv8ADLbmQ6xOONutrCmVuNlt1wPpaHMoQoAKBSCVA5SUkfKpCgOCkqGDnkAEnOfoQ8YSe/LGe+MZxn6ZBIOP0JHsYDVHgfyEB5gIKMknPk58feAsDAA9hiAQEFGSTnyc+PvAWBgAewxAICCjJJz5OfH3gLAwAPYYgEBBRkk58nPj7wFgYAHsMQCAgoySc+Tnx94CwMAD2GIBAIBAIBAIBAIBAIBAIBAIBATy8g9j3xnOCPoc4wM/7+cQH5NQn0yralvOtSzaGZl9x2YcSy0y3KJWt56YcWQGJRLSFOGcX+5QkcnS0khUBjl9R/4lLZXsgnKlpbpnMzG6rcRyepclp3pjPy1RoVLra3XJWWlbluykqn5BxTU2lTCqZRDWJ1woU2niopUQ6R5TTn4jnrouInr0uyf6f20C4ZpZkKJJzde00E/bk856zrUxJ0x2U1Mvpx+muoQlqsv0+3Zo/MKbLskspDt/2U/Ct9NbbQxS7s1lodxbt9U5QImH65qnOTcnYrdTBQ8ubkNPqTNsyk0DMeoVC4Z+qtTKFErkZYrU2AyPdN9LtNtLLXkLO0y0/svTq0aYhsSNr2Pa9EtW3ZX0m0ttFij0SSkpRsstpS22ShakoQkciQFAPoAYHHHLuUKT6iRxWCtRWooUkjjkklRwVr7FbilDJDUKOQws575GMgeScEcilQ9goEdu+YDylASkp7fzwB/QYHnv2wPbEB5CEgDt/r/vAOCfb+p/3gILZJ/Mcdx/GkhOfAKFo8fQkE/XMBPoIylXclKeKSvC1Dtjl6igXgfrlLie/fzAaRYTxWV8V/IttQUgL5BWRkqdLq1BSFFDiHFuIUAniEAEEOqveF0X+m/vZlai9rPthsCWu2fROEaj6c0uX04v9qanVL9aoTdetdqSTcU64lSS4u7ZSvsqeSXkMtqWoAMaHVD4brqD9P26KjrV0bt6t7S62X5urv6MXdXJe2qxWWJRCyinzsv/AMdpnqR8rYDSLrt9irPLU2ZdVNfPFsPoW2X4nbXvbDqDKbbes/tcvDRK86ZNylKmda7StGp0yTnUBSZQ1O5rPfXUGZuUdSkT8xX7TrNWkHy6t0U+nS5QhIZfeg25jQrc5YFI1N0E1Rs/VGyaxLy78pWbTrdLqTaBMMtupYm2JWaccp04n1EJVJz4lHFfMWA8EgKD70h3CElYCQEjmvl8iTnjx+YIXzzgcFNpIJ4nBwCGqFggfQkfl7+fbOPftAVAIBAIBAIBAIBAIBAIBAIBAIBAIBAIBAIBAIBAIBAQV4JGPBx5+0Bpqf4nHHuQcJHNa+Wfl5Jabc4oUn5gonOOxRkEAOGm9jfhtl2C6Q1XWTc5qbS7BtSXS6xR6YfTnLwvOrpC1NW9ZVtNzDdSuCrL/dKmUyzYkqPLOCcr07SpRIeUGFFem9Dq+fEa33XdIdk9oVzaVsPkqm7J3LqjUZueojFao8jPKkZqZuzUOnpYmLorSpFIQmxrEWJRibDktU6m6ygPOBkVdNH4evZL08pam3jOWw3r5uAPozdZ1k1RpFMqsxL1BbaHJoWna86zP0i3mxPF1xqcUidqpbKMzbbwLhDvwlJZAaCUpS2lkFtpISsJaaxxCJU+p60sjglKQ0h4tISOLaEJ7QG/S0nglJA+ijyyok+TlSiVEnPdRJJPc5yYDx2TyAGMk+O31P8A+v5QGsn8qf5D/SA8wEFeCRjwceftAWDkA+4zAICCvBIx4OPP2gLByAfcZgJKcpUnP5iTnHjP+MBpjjxIKQeHy/zwcZ/pn6wG3cbbKVnmtBUhPMIVlsJClLCfReDzAUc4W4loOLIBKhgABh6fFqbpNKLL26aS7UZbTeyNUtyW4i8qcmzGq5bsnWLrsOyqXVJWVqFwWzMpafnqY/dNXqUjZ9KRLTNLenZlM7OOOTn4JbLgdYFH6K3WC6Tul+me83p76tVy6LtXYlHvPX3bPS1tTk1Rqk7TpSp1elos+qvOUe/ZKnyr03TKo3Kty9cYLC35J5xziiA79+kv8RToFvon5DQPcFJSG2jd5JTJpH9grr/H0a1tQKrJvu0qeZs2er0tJT8tXEVSSmiq1a1LKrUicU15+cqjEy0AySJWaKsgJdcWgpSrkEg+ongHWnXASw3NpUon0FOAqSQoKHLikP1krCxlOD9QAryn+E+O3IYPj6/4wFA5APuAYDzAQV4JGPBx5+0BYOQD7jMAgIK8EjHg48/aAsHIB9xmAQEFeCRjwceftAWDkA+4zAICCvBIx4OPP2gLByAfcZgEAgEAgEAgEAgEAgEAgJ5Aee3t9cj37f6QG0cd4nPHIUtzACsLLTaQFrQFAJUpLqkp9IrSpTfJxBUU+mQ6ROsH1s9vfSt05RI1cS2qO6C65R2Y0t0BodUUmoVB97MhJXNeU7Kyr7tuWjITqkAGfkP2hXXm0ytLlXA63OIDHi2RdG7eN1nNaqR1FesxdN6UfSiqvStW0r2zMLnranrmtd5tNUpNOZpCJt46W6XtLfl5hqUYSm7rhYUF1mtS9Ufnp58M5PSXSbTnRKwra0t0mse2dONPLQpsrR7Zs6z6LT7foVCp0qwmVZlZCn0ltiUZLbKEN/iglydf4erNTk28pT6w+mhsj+LJ9yM9/wCRJ/qSf1gK4Dtjt74HY+/bPYH27wFwEFGSTnyc+PvAWBgAewxAICCjJJz5OfH3gLAwAPYYgEBBRkk58nPj7wFgYAHsMQCA0iMJcP8A9if65/7wHoOoN+WnpbYt66jX9XJS2rKsS2qzd11V+ouNsydHtqg0x2r1msPLW4lIlKfJMPuPKUpC1KZW22hbimUOhgT9JrT66eux1m9buqPrZRpt/bRtuuWUltHLVrUu8/Sm52muTVJ0HslSHUsSz85QKCwnUO+JdEmhucuB6mzj6ZZyrtfhg/oEIaASORS4ppz1UFbKnEIdCC2S0lbii00EEhlDakqQOy3HCVqWGOV1hfh8tvfUSplf1h0ldo+3jeBJSyatRdVqXTnpOzb5rNMSiWlmNXaZSX5Sozky+iUlJBm+6d+JqVtKDdWqlOuOSWqQZDqk6bnXI3N7AtbJHpj9bui3PaVw2wumWbpfuduV8T9QlqXNTH4G3pTU+7Xn/wBgX3aNZl5VD1savys3NTVNkiWbpfnZxqoz0oGb3RKxTbgk5C4KLPy1aolXpzFSptVpU1LT9On6dNsNTEjPys3KvLafZqTLyJqRVL+o2uUUh91bKlpagPZGyPTT3BKUgHirkMgfRWBkH6HAz7QGoDkA+4zAQUZJOfJz4+8BYGAB7DEAgIKMknPk58feAsDAA9hiAQEFGSTnyc+PvAWBgAewxAICCjJJz5OfH3gLAwAPYYgEAgEAgEAgEAgEAgEBCl8fpntnzj3/AE/SA2r7o4BwqbQgd3FqcAShAJSTkgBSwr5SjIwrAKskAh0Hdb3rQ6fdL/S1Nj2VLSGoe8LVeWQxpDpVIhdQm6e1NlukC/7pkJVqbmWpSSm1NsW7S+Mu/cVQb/dcWW+bgdVPRh6IWoGsGprnVE6sRnNWNw2odTl7+0+0sv5tdXp9qszDaqlRrnvKkz8yqWVLyzU2yq2LPXJOyVNS0yshLjKuYZnNLp7ctLCVSj0pZkIaaYAKOLKEFJZc4LDamwrJSgICW0EtZWkkkP10IwlOTlQSMqxjJwPm4jCRk98AADwBiA1IBAIBAIBAIBAIBAICSoA/p9T7Hv2/nAbZbpCHuKAsYdW2pKxxUG0JKgtRADavVKmuPzEcSs4+ZKQwzPisN9l3m1tJOlNtwm3qzrfuzuKiS2olEoK3XK0LBrdcptJtKwHPwyHXA5qHdz7VSqMsXGUKolsMsuNPSzj7iwyGOlfsJtPpx7KNHdslttS7lx0mgM3Hqxcsq22l259YLpl2p6/Lh9ZLswt1pqfWKFQVLmXhK0CkUxlBKAtJDslwe/cdyfp7+/fv2/8APpAfnzMskhak4Lqlc8uAqbKilDagtCFNqU0pppLS2A6hlxIBdQteVKDq26ofSp24dUXRWd051gozFDvq3pCdOl+stJlZRi9NOarMsGebSzPzbTzdQtWo1RthupW5NtOU0htubl0NTspT35QMWDpwdRnc90PdzSelz1QXapO6BTtUepugWu06t2fpNtU6pzjYpjtErb5mTPaa1YrlUz0k5PJn7TnFCRaQ9LNNuLDPWoFcp1fpshWKTOy1UplXlJSo06fp8zLzkpPU6pSzU5I1KUflnHJeYp81KvtPszLLikLStHEEEGA9gSoYHkHA+U9iDjwfIznse+IC4BAIBAIBAIBAIBAIBAIBAIBAIBAIBAIBAaLncEgjAylWTgpxnvjHf+n6GA6oerd1P9Jelxtcrusd7fg7g1Er7lVtnQ3TH8Uy3Vb9v1yntvNNDDc4ZKkUETktX6/UHpKZl5OlvSTKj+0KnT5N4MdToW9KrWDeRrHUetB1N0uagakapVo31t700u1mZTTk0yZeK7S1FnLfnlk0uzqc04lnS62lsASFLblK5OOzT7y5VIZu0i0442HFBaGkkOyzakhtDRS16bBaZbCC02GDhyWWt1AWeTfpYwQ/VCBxSE/KAAMee3byc5P8zkk9/MBqAYAHsMQEFeCRjwceftAWDkA+4zAICCvBIx4OPP2gLByAfcZgEBBXgkY8HHn7QFg5APuMwCAgrwSMeDjz9oCwcgH3GYDRWCUOpBwSFKCvbwcY/p5gOP8AuM1/sPbBoVqfrxqZUWqZY2lln1u8K9MTOClbVIZCJeSQ2pTX/GVerzMnLU+XC1rmkuFxs88IAYVvw/GhN+dT/qM7iutFuVp0zO27bd+VSjbeZCroLkpKXo+BT5Gao7TyQyyxpXZc5JyFGS3LOIXXq1N1IOSTtLMtOBnqNpSG2wG0tgISAgJSkIASMJCUkpSE+AEkgYwCR3gPJXgkY8HHn7QHnAV3PfPj6YHt28/zgNlMMAtqQVKUF8wpRCCv0nFqUWQooI4JJAQFJVxSACSe8B1W9Vrpc6OdT/blXNJb6pspRNRaNJVGqaP6oS0nJiuWVeSZT1qa8xM8GnFyFRebRL1SSdmm5Z4OOzIQ2sBMBjqdC3qWa3bJtyVX6K3UnmJi27xtytzdr7adQ7nd/D0uYecUw7SrFmK/PLUZ23rvpamZjTmqKnA2yn8Hb65P8bNSS5kM3dD5QlThYeTghQlyEmYS1/w5UsoQtxP7kP8AzoK/V4oPFKlKCYD9AOKwOSQFYHIJUVJCvqAopSVAHwSlJI7lI8QGqDkA+4zAICCvBIx4OPP2gLByAfcZgEBBXgkY8HHn7QFg5APuMwCAgrwSMeDjz9oCwcgH3GYBAIBAIBAIBAIBAIDwTgEn6ZgPkWtusNg6FaW33q9qbcEhali6dW1Urruau1CYSwxJ0mmNIfmHEJVgPvOhaZeVZCkqmJ0iWRgnmAwM9n+jWofxLfU6vLezuKodVR089rl2N25prpnVPxDdJuwSEwit2npm7KqcpiZj+0j76bm1gqkvLlUxKLkbbmBKylRmysP6BFIpjNPk5CSkmmJCUkJWUlJSRk2mW5CXlZSTakpWSbYYYlGvwUmy2BJsy7Mmy2RzQwhPFtAewBJACeRIAAJPdSsDHc+5+px57wFeIBAQUZJOfJz4+8BYGAB7DEAgIKMknPk58feAsDAA9hiAQEFGSTnyc+PvAWBgAewxAICCjJJz5OfH3gLAwAPYYgNInJOe3ILB/wDqlORyJ7djgHvjzjP1gMHf4nHdxe+6PXLb70Xdrs87U751VvO0bg1scorzjspLmpOOsWtQq2/K/u1SVBkW13rcLC5ppyXlJeRkn5T1H25hoMr7YltFsTY3tZ0b2yaa09uSoWmFqU2mTs8xLei5cdzOMtu3Lc9WDilvTNSrNRL7z0w68l0ILST/APGkAOZqEpShKUpCUpSlKUjwlIAASP0AGP8ACA8FGSTnyc+PvAWBgAewxATxB89/b6YHt2/1gNlNocDavSSVFw8XEp7EgYCFBSufFSEpAJA+b83ykDAY2XxD3R7/APcC0FRr3oPS3KbvZ26Ut65NNZqjqZkKrqdbVJM3XJzTYT7KpZ166GkS0xVbCmn1KW3X5b9i5l5SvzD5D9b4dnq4nqG7aJ3SXWysMNbx9sUjK2fqrJzynZWo6l2lSXHqPb2saZCYlZWcTVXlSj1u6ipAcdYuOVlqvMok1XVTaNLBkfp4nsFEEdiFYJBHkEgkEjwTnBPiA1wMAD2GIBAQUZJOfJz4+8BYGAB7DEAgIKMknPk58feAsDAA9hiAQEFGSTnyc+PvAWBgAewxAIBAIBAIBAIBAIBAbWYUVNrSgFSgrgkJ491lIIBKikDuSk4KseT7AMHP4kHdtqNvJ3O6FdE7aRUzUri1EuS36pr7OUeYdRKy5nJh6ZpNvViblmloRSqXTPxly3Q05NobllNSLbzajNhxoMsLYjs0012KbZNKtsel9PSzbmntqt0+o1Z+XZRVbquapD8bddzV15srcmancNYdem51xcwtwNsyMs2+GZNsKDmlwH6k/wDMfJPuQMDOe+AAP0AgKgEAgIK8EjHg48/aAsHIB9xmAQEFeCRjwceftAWDkA+4zAICCvBIx4OPP2gLByAfcZgEBBXgkY8HHn7QGmXikpCkBPJxCElSwEr5qUAGyEkqWEJ5qSUpAzxCzhRSHGe9d4u1iwblumzL2180otm67RsWq6g3bQKpe9DRUrdsqkvSsrP16tS7E3MLpcrLTVQk5VSZlKJt5+aZTJyk2hxK4Dizt12XdNm9NYGepJt602sS+dWtV5OqVin7jKXct83S9cLVwqRIz87TZO5bjnrcpaplpliQDNKtylKpkiyZeUEu0UttB2gJTltHFxRBSkhYXz5DAwrngcuXY8u3Lz9YDUAwACckAAk+Tj6n+cBJXgkY8HHn7QFg5APuMwCA0ysgn28Y/UE9/t/WA/PmpVK2nAtsvpfQ424kKLSnG30JQ6lbjYK+WENem62W3Wgy0EOfKsrDAY6zGgeonRS6nWjnWB2u0h+T0S1y1AMluIsyiyy27bYvqukKv6h1CSlVLb/ZOrVOYnrrk5Qy0rKSd60qbclUzE1LUhxoM4vb3rZp9uJ0b031v0vrTFfsTUyzaJeNuVBt9LziqdVpNmYMvOlpKkt1OQdW/KVCV8tTTCkKKefyh9sS6hRwM5BwQRjBBwQfbB7GA1ICCvBIx4OPP2gLByAfcZgEBBXgkY8HHn7QFg5APuMwCAgrwSMeDjz9oCwcgH3GYBAIBAIBAIBAIBAaanEpz2J+n/hgOF3UA3d2Zsc2ha7boL1mpZqT0usWrVihU+ZcLTlbut7FItiiyjZbWXJyq3DU6bIoQhp9SWXRNBt1KVtgMXb4WrZxe+rNwbgervuZkF1vVjcPeV2SGlczW5ftK0SpVB2cvGr0tubcdck2JyeLdtUxKGuMjR6clpqYmEuqS2Gaiwl1AIVlwc1FLiuyinJwCcHlkEZV2yf4QOwDejx37H6jziAQCAQEFGSTnyc+PvAWBgAewxAICCjJJz5OfH3gLAwAPYYgEBBRkk58nPj7wFgYAHsMQCA0VDstXsT2+8BsFOMqQ+h5vPrtuMlooUp6ZQFOhbaA2oh5PoqHEtLK2UH/AIn0VAtoDE36cmzfbpql1m+t3qb/AHW0Cp6R2DWdINAaTQKs2/WrKqty1mw7fqeuLtVp1TmZ2n1etSd62WxM1T9ovPppkzNTkimjS82lTwDKH0t0ksHROxLb0t0lsy39N9O7PkxTratG15FElQqNJoe/EIYp8ogIS0j1+S1dgFoIQEtgdg+qIACUgAABIACRxSAAAAlOTxA+gycDtmAqAgoySc+Tnx94CwMAD2GIBAQUZJOfJz4+8BWCAAD49x9xAcLN/wBtCsLfVtP1p2yakSTE7RNRrSnZGmTbqECYt66JUqqVp3LSnnFJEtWaDclOp0/JTaFNqCEGUWSy8+XgxePhcN11+6O3luS6O+4100fU/bjeV2VjTaUqLym23KPT51Ldx0emevl52SlplqSuWSWmYdaFJqkmGmXA8462GacyptQK0JI79iVZKu+cnsO58kfr5gN4O4B9wICSjJJz5OfH3gLAwAPYYgEBBRkk58nPj7wFgYAHsMQCAgoySc+Tnx94CwMAD2GIBAIBAIBAIBAIBAaS+ZB44yCeyhgH9eWT/QfzAgMHL4ojWy9t2e6/Y90a9FJx6crepN82xqhrJKSD6iz/APyOqKtzTqj1NxhsKYRRaPKXretXl3nClqTdsmqLaQh1twBmObctCrK206K6VaD6dyLEjZekljUGxrfaaZDS35ejyMrKzNUmylSg9P1ebl11GbfVla333CpS1KLig+58SEhKTxCQAO2ew7D6j6D6YgKHYAE5IA7+/wCsB5gEAgEAgEAgEAgEAgEBpLOEqT7gnPt+n9ID5ff8helTtO5KVpvcNq2vftQkp5u17jva0JzUOzrdrb6VM0+oV+wqffGnNXuWlKKVLfpVHu+3Zl+qNmacn3WCQoOrDpjdNjXvYDee5a4783aWHuRpW6zXC7tx2pKmdtlz6PXkxrDec65O1d+jXZ/6mNSKG1ZKHH5tDNqzGn5myHUKVXGyl1t0O6FtKkNoSo5KUJSTlajkAA/O4pS1/wDUslavKlFRJIXAIBAIBAIBAbCYZS7yS6AtsupUpBBCVIQnKEEA98O/veXbOeOMHIDBI+IN0+uLpm9UjZp1gtJpR6mWxdV1Uu0td5akMrbbqL1DLEjWUTko0HWpg3XY81PslT+DNTFJpDAStyVK1BnDaaXtQdSrCs7UG15tqet2+Laol10SbZcQ629Sq7S5WqSjiltqU2Fpbm0tOoQtYStJIUoQHv48D+QgPMAgEAgEAgEAgEAgEAgEAgEAgEB+XVKjJ0in1Kp1Cabk5CnyM1PTs7MKQJaTlJNtTs3NOqUtISzLNBTrxWUpShtRKhgwGB70EKXM9TPrb9Qfqr3fJuz9k6Y16r0XRt6pBxcrSpi8Q7Yul0swHA22uet7QyyHHp8MsILlRnpGc/4FSh6wZ6LTQbabRkkobQnkTkkpSByPYAkkZPYd/oPEBqwCAQCAQEFeCRjwceftAWDkA+4zAICCvBIx4OPP2gLByAfcZgEBBXgkY8HHn7QFg5APuMwCA2T73FSkAJyErT86igerwLjKSeCh6biEuqW73DPpnKVAkpDA96g26jcf1Y+ttpZ03NlGuerWkmg2gtTqP9+uoWiGot3afftIUsy0xq/dNVq9n1eitzjlBkGJWy7Pfm3ptpisTjz6W5mYm3GWgzn7attu3KHR7ekXp+Yp9DptPpUo9V6hOVWoPsU2UZk2H6hUKg9Mz8/OutMoXNTk9MzM5Mvqcfmph55a3Fh7WFkAAgZAAOOwyPOB3wM+BkwGqDkA+4zAICCvBIx4OPP2gLByAfcZgEBBXgkY8HHn7QFg5APuMwHhSeQgOnjrr7QGN6nTM3K6ZS8hLz922naUzqpYCFIAfl7t03ZeuaSLTuC4szEnJTrRkmlNio+u3IqUnmFqDhH8LBu6f3H9Me09N7mqb07fu1W7K3ofXJObWv8AaaLapqZOrWIp5pwKecclLcmJeivBanFPP0ube9YFSpdkMl9DmQBhPkJyk5SfHdPb8vt+kBRXgkY8HHn7QFg5APuMwCAgrwSMeDjz9oCwcgH3GYBAQV4JGPBx5+0BYOQD7jMAgEAgEAgEAgEB4JwCfaA6fevDuZXtS6Ue8bUinVBun3RXtNJnSSz1NvKlpty4NYZxiw+VMdSFqbqdMpFdq1wtcElT4oro5Svablw4XfCqbY07fekhpJec7IiUuvc5eF868VxbjQ/HP0WeqC7HsRp9xfEuyy7NtCjV6RcJQ2yK/MyiG1pJnpoMlMeB58DzjP8Ajjtn3x29oDzAIBAIBAQUZJOfJz4+8BYGAB7DEAgIKMknPk58feAsDAA9hiAQEFGSTnyc+PvAWBgAewxAeCcAn2gOl3rodRKk9OjYbqZqTJVNEvqzfjU/ptozTkOtpnpi7K5T1maqPplt5wSlv0t5+qTEyhkhlDsk3zaXMBaA64fhb+nXP7cNrle3kayU9T+4jeROpuidm68y4usUXTaaqExULfpriZla30u3HMVR+7LgRmV5zczTaa4HxQ0z08GV8kZAKklKiAVDlnBIyRkYBwe2R2OMiA8FGSe/9PvAagGAB7DEAgIKMknPk58feAsDAA9hiAQEFGSTnyc+PvAWBgAewxAID8ipSMvUZd2nTrSJyRnmZuXm5KcQlyVnZZ5Kw7KPJOQUOcgkFSVhMuFN8FeoowGC50GlubDuu11J+nhUJtyVs/UBy475sGWn3CwqambDu5uo27O0+XUHUmcq1nXzUn50IfHqU+jF9JdZADAZ2DWQACniQoZSMAJPbKQAVDt47KUPYkd4DXKMknPk58feAsDAA9hiAQEFGSTnyc+PvAWBgAewxAICCjJJz5OfH3gLAwAPYYgEAgEAgEAgEAgNNxWARj6Z/wAv/wBQGFz8ZzrBUZPaltM210Nx6YqmtGv1SuoyUgQXHHdPrcfoNHYmscVuszlR1JDKGxj0J2WZd4vuJSlsMsXa5o7R9vm27QHQWgNtpoejOimmOlNPwjgXqfYlkUW123VFKsh6acpq52YdUXHHXph0rWpZ9SA5Cjx/t2H+X0gEBprcDYJUDj9O5+v07e36wGmmZbUcBScjuQVcTj9OQGT7gdge3LHeApL6VkhA54/MUqQQCPIwFkkj64BHsTAEvpWCpAJAUUEflWFA4IUlfHj4Pk57eIDRenpaXSpb7qGG0A83HlBltGM5Klu8E8ex+dJUkjBBIIgPV6lqHZFHl3Juq3da9MlWElb0zUbgpcmwhA8r9Z6YDQTjuPUW0cYyAcgB8FujfXsushLqrx3XbdrVDPL1v7Q6zad0j0igkLSv8ZcTQSpBBC0k5SQQYD4LXOsb0q7dDwqvUM2dsvMBSnZZjcHpnPzISnPIJl6ZcM66XARj01ISsK+UgEGA+O1jr/8AR2oiimc38aEvhIKiqkV2euIHHkITblNq61q7HASjv9CcwHzuofEm9FimpUt3e7aEw2kkEyFh6uz6jgkZQiV0/dUtJ8pI8jvAepTHxQXRBllhDu83JP1Z0J3GzCP5h1nSVbS0+y23FoUO6FKTgkPzXviluhwySlW8mfUUkghvbrufcHYkHipvRtSVDI7KSSlQ7pJGDAUfij+iGtsLZ3gVJ9KsnLe3fc6A2hLUs6px5bmjaGWkoVNMtrCneaD6pWlPpLEBiEdQnqXbVOrP1gNGf74Nd6dYfTS2+VWXfoly3Ha99syd7ylCTK3BcdX/ALKSdvC8Ur1CqkpJ29KLrNsyX4OgSIU+84X1SrIZmtodfzopU6i0e2rZ3xaRUmh0enSVFo9KnKVeVvy1Lp0gwzLSkox+2LUpUslmXQygJW1MLawkcXFJAWoPvNC64PSOuD0/wfUL2rSQcUEpNe1cte2kgnH5l1+cpzSUgeVeoQMecYgPt9sdTTp5XqUf2Q3vbUroQ8oIZXb+vem1VDpV+VSVStwLbU0oEKS6hxaFJIUgqSQSHIy2Nd9GL1b9S0dVtOLoQQFJet2+LarsupKhlKvXpNSnEICkkKAdDawDgoBBwH0Biv0iZAMvUafMBWOKpeo095Ks+CkpmskKHcdgSPoIDfmaSnHyk5SFDC2gOKgCnCnHEIUSCPyKUn6hRGCQ8maQlKVK4pCkggKdaSokjOByWG1Y8ckuKSfKSRgkH4ghIUppTaT3BccY7g+CPTdcyCO+R3/SAtDyVq4JLZISFHivkQDjBA4jIOfPb6e8BrA5APuMwCA27iccgTyScrAV34qJJOD5x9APoIDBH6p6U7OPilunNuWp4MlTNxUvpTZ90zBTxpcwb0n7m211dt8AIQXWKNUaRUJjkrK5ttlxam1JEwAztZcEthR7EBJIzy78QccsnPjzk585MBuwcgH3GYBAIBAIBAIBAIBAIBAIBAIBAaLv1/6T/wB4DBT+IVQvXbrx9GzbOoCqUCSufR6v3FTFp9ZAlq9uHYqlztqYBQgCatK0mGnXF8ylhv1FIUkFJDOcZV6WBwdKOTbSFlIWVAt8g4fS5DB7DAAX3yW0/lgNVyotNNIddAbbKCtx11xEu00kDKlqM3+HcUgdzyQ0pWMEoBOIDh7rv1Ftju2WUfmtdN0OjWna5ZDqnafWb0piquFskhcsKRJrman+MStKm1Si5RD6HUqaWhK0qADpN13+La6U+kzs5IWLXNU9c6zKreaEpYVkTElT5txKlCX/AAVZuR6mSj7U18qm3QlCQ2tC+KuQEB14V34s3cvrBPKpezXpXar36ampbFJqN6T9xzhbfdWfwzq5S0beq1McSUlCihVUkmjnCVBGDAfiK33/ABZ25FCpbTPZNZGglAqSyZKs3BYDNPfkQ+ebC/2/f95PSSEtNLQnmmglrtyS0hJCAF/+gv4t3XwBOqe+e1NIpCeHzS1CvaxZJuRl5j5+CBpZaiaon0Ur4BLjzj6QkBb7rmVkN5J/DLdWHU4+tuB6yeo8+qaIM/T6DfuuddlGmnvmdbakqtXaNTwElSkoZZaZaSkBDSG2wlKQ9mp3wX2mVfnGavrF1Bdb9QampQVMIVYdNW/yWeTy5esVy+a1OhKllSkuOyyXSnCnAHCUwHIa2vgzem5JBk3fq3uWul1sIC3pC57bt5TwSAFZS9b9ebRzwSQlIQkkcUADEB92ofwjfSBoqWkzNs69XCWVJPqVzVmU5ucMf/IaNZ9HypRGVFPEEk4SBgAPstG+Fv6M1LQhM1turVe4nnyrWp99OuLUe5U6qSrEilRUclYQhtBUTxQlOEgPosh8NV0VJBSVnZHas+tIABn9QtYFJJAxyKZPUGSyT5OCBknAgPaJf4d3oxSqS23sQ01UPB9S7dXHe47dlOaiLcx//YtxZ7clrVlRD9FHw+nRsbCUo2E6UkISEgrrupThISMAqUu+StRI8qUoqJ7qUTkwGPp8Q/su6P8A05tm0/MaU7LdKaRue11q6NPNEFy1c1CmJmhS3Ftu8L3ap6r1mWCi3G5lcqVzUk6mYqlRpkuXfUWgoDkR0dPhtNkz2xTSm9d923an6q68atSbOo1RNzXXqXQ5qy6JX2Gl2vbgpFo3vbtKTOStPfanp1yo0558TK1Sr6VuMqmHA7I5z4YvouT7fJnaWKW640lJepmqWqra+4zz/wCIu+YQVnOSoNpBPcJSO0B8qr3woHRzrJcMtpNqlbxWFJCqDqzWmihKuw4KqUlU1kpHYOOrddV+Zxa1EqIfC7j+Dn6UdU9Vyg3FuitmZUFekUao23VZVgnPHEvN2A084EAgAuzanFAAuOrWSohxyuv4K/aHPP8A4mx922vdnPtfNKP1C2rTuh+XcTn0lpeE/QXAG/oltTIzkgp+gehTPwmG6jTnKdvXVx1ptRMsM09c3M6iWClsp+VhBVYd9TC2EoQlADbK3EsgcG1KSlJIeuq6L3xK2hbintFOrG7qKiUJdkWrh1QvuqvuBBwwxM/3x0euSDjpSlAdcM1NpUvkouvAlag1/wBufGO7ak+vVqNpruZp8thSW3ZDTy+pqebaOAoM6ezdmVFC5hKeeFKQ7yWSpCFfKA0v/wAhrrcbZphqW3gdJCrVNLJBqtZtSgaj2mW5Rr5X5mVl2JG95RQc4qcaRM1dhQSUhx0qBWQ5K6TfGM7N6hUZOh7idt24fQOsqW01PT05SaVcdNlVJSkTI/DsPyNa9Bl0LQlL8mqYCUhL373kIDuW2+9enpS7k1SEtYe7vTmiVmorYbl7Z1GmZqwLhU5MpCmEJk6/LS8opRKkoXmfSELyBzSkqgO1a2b6tK9KY1W7PuKh3VRX8BmrW5WKdWac59SUz8hMvSC0FPFaFNTbhcQoKQkggkP3jNNOI5tn1Ekqb5tJcdbC0q4qSpxCClPE5HJXFHb84z2DB0+Mso9R0/T03d0NuMrarmm+rd8yCp9PFKkP2+5Yd/Wmyp9vJR6VapVYdax6uVOrWg4bKVhm62lW5K5baoNw01xD1Or9DpVap77Y4tuyVUkGJ2VdbTyVxQ4w+2tI5qwkgcj5Iew88dsZx28+3b2gNQHIB9xmAQEFeCRjwceftAWDkA+4zAICCvBIx4OPP2gLByAfcZgEAgEAgEAgEAgNF36/9J/7wGBtvw1BsaQ+Ln2rVfVe7LbszTnRHTWkXRc1y3dWJGh0C3adSduupt9Sc9UavVXZOnSJfrL8umUQ7NcHJhMqlDqp6bRIthyr3nfFX2Gxf03t86YugN5bx9WZ1S5Oj3a1QK6qypqdbmFSUvP2RZtOpb19XpLLWUTaasZGkSz0otE60w5Ir/FAOJbGxr4mvqlJaq26fcVKbIdGLkWgmwpCrroVUlKXMcX0+nYljVNU5MTK5VwNrmK/dTM8hYP41tUwl0kOb2gPwfOyK25lFzbo9Ztcd0F4TolH6wmoXN/Yugzkw0G3HX0vUNa7jqMs9MhbqWq1W50PNqH4lClrcJDvJ0E6O3TU22NSv91e0HRymT0qGiKzVrYYuGrTTzSEo/FTz9aXOsPzDhT6jhblWGvUUotstJ4oSHYLb1j2naMomRtW3KDbcmnHCUodHkKVKtBIAQhmVkGZeVabbSAlptLPBtACEjiAID2L8Kck+ssnB78GgQo9yvCEIQVE5JKkK7/pAUmXIACnVLUAEqWpDJUsD6q/dYyfJIGMk9sYADyljAUkq5JJyArkrHc4GFrUgJHYBKEIQAMJSkYADUCAB8oSk9gSlIBIH0GMY/qB7QFAYAHsAO/c9vc/WAkoySc+Tnx94CwMAD2GIBAQUZJOfJz4+8B+HWa/SrdpVYrtcmpel0S36bUqxW6vOzCJeRptLpMt+NnqhNOu8CiUlpFuampl8JU0wmTmUKWVIHIP58WjspUPiIuvjdGtlYlZ2r7C9k1RYRarTrTirdrFoWvXp4Wm2pC3ZeSmKhqvfEhM3jcjbQfXLW5ItsLXUmaEmaqAf0KWaa0xLssSqlSjTUs1LtNMoQ2ltthKUSiQhI4pEu2kI4I4pV/9QMQH6Y7AD2gEBBRkk58nPj7wHngn2/1/3gNMMJBJJJBJUElLYAJJPYoQlZwT5Usk/wARJ7wHhbJWkJKyADn5S8k58+Q8D5/XH9ch4UwCAEkI/wCYhtClK98qWFKJJySSSo5JJJ7wGkuRYW240tDbiHklt5DrSFtutHI9NxpIQ24MHGXEryPOfoHGnVXZNtJ1wkJynasbcdFr6YqBdM67XdOLXmJ6Y9dSlPKcqSae3Ug86pSluvIm0LWtSlnuYDpp3GfCz9JPXP8AaFQt/SGv6E3DONzAZqekFzTlEp0o88pSkP8A9nJ4T9JmFNKUCEutgLCQlRxAdQ12fDM9RzZnVX776XPUju+SXRj69DsHUat1azVzapZWUU92sUecrFo5cbSiXZlF2bLKV+RVQaICkh6/Qeux1lOlzX6XZnVq2W1bU7TSSmG6Y3rbalIcp01MSrcw1T0zctqDSXKvZFVmXWh+MVI3KugVqdV6heYbfWrAej/EX9SHZX1O+kxpPqRtm1QpdZu2x90mnS7n0zuMMW/qZYtNuDT7VeVnJ2sWpNPiZmrecqVFlJL9vUA1emPvKkHG3DLzLboDNU2FXI9eWyDZxd7/AKpmLp2q7erimhMAJfRMVzSO0ao6l4ArHqhyaUHACQFg4JHeA5ZlGSTnyc+PvAWBgAewxAICCjJJz5OfH3gLAwAPYYgEBBRkk58nPj7wFgYAHsMQCAQCAQCAQCAQGksZSpXsCMe/6/1gP5mnWl2xUnet8T83tXuHUuk6PULV6haGWzV9Qq0qUEvQaZKbe6TdFQakxU32qVMVe4qdRnratqRn0qkJ246rJyTku7MvqeWGd7sW6aWznp5adU+wNrukNEtOYMgWrnviclJSuao33UGeEtOTd63zUELqM+tyaC5001moyMrSXlKkaFL02mNtyCQ7BESDSFeoghtSu6lNISyognkUlTIaK0A/l9UOK7ZKirvAa7bJbJAWnhklICCFpGewLhcVyAHb8oJH8zkNxAIBAIBAIBAIBAIBAcdt0m3Ojbp9AdX9vtfva+dPaFrHZtUsis3hpvU5ai31RaPWvwyasxb9Zm5OoMSbFUl5ZUlUWVSTipiSnaiyh5kzKVshwk6SnS0036U22Ze3myblOotz1u/ruvfUHVact+XoFTvianqpMM2mqcoTNVrKaHJUO0Jaj0AUZqu1GXdmlXHVGXJT+0KpGnB2wtApbbCuXIIQFc1c15CQDyWMBas/mUAORyfrAXAIBAIBAIBAIBAQtHMYzj/DPt+o9oDbKk0qzzUXOQwr1ArioAkoStttbTTiWwQlsuNrcCUp5LWrKiHpN8WJZ9/W5V7Wvu3KLd1sV1l+nVmg1+hU+t0usSUyyWJuSqVMq0nOUyel3/mI/FSj5aStQlltkJcSH85n4n7owbT9jtpWHu32xVmjaUSWqWqjFjXVtuMwlFHcn5y3bhrhvXTSlPvP1ij2tTkUNylXBRJdDlu0aaq9OfpK5WWqbNOlgzq+lO6+/wBMLpxvzCS3NP7DdoL82lYXyEy7t909U8FBxRcSoOqXyC1KXnsokgmA5+wCAQCAQCAQCAQCAQCAQCAQCA0lnCVJ9wTn2/T+kB/Nh68m0W7N13xHdhaE2PeklpvfOuumem7tjXnMqmpdqk3VZGkdcrNsTDsxJzctPSs5NXDZcvS6ZVWihqnTk9LTp/EtyKpSbDlvpT1o+rd0cK1Ibf8Aqy7Yrs1x0ktp+WoFva/0CXVPXFM0KUKJOUmmb9lJJ6x7/k5SSlmnGmqzOWdca28TDz9UmHHCsMlHZ/19OmHvNlKVK6f7jrUs29Kj6LK7C1YnZfTm4WZtbaFOMMKuhdMkKiEuqU02uTmFKmOPNtkJUBAdvNJuWm3BIsVSgTdPrdLmghUpU6VUpap0+cbWlK0uS05TDPS5CkqQUF5xlKgtJ5AEkB+sJv5ylbZb4IQpwLV86S4AUNgJSppxfcBz03lIQrIC1jCiFomColKmlIWCcpUlwDCfJS4ppLSwfoQviR35QG4ByAcYyAcHBIyM4JBI7foSPYkd4DzAQV4JGPBx5+0BYOQD7jMAgIK8EjHg48/aAsHIB9xmAQEFeCRjwceftAWDkA+4zAbdculzPJRIUoqWkAJSvvlAVx4lQR28n5sZOMwFpUUpCSASkBJKRxSSBg8UkqKR7JKlYHbJ8wGqDkA+4zAICCvBIx4OPP2gPHqfp/X7QGoDkA+4zAQV4JGPBx5+0B49T9P6/aAlbpShSkILhTjICgkDOOWVKwMpGcgZPgHGewT+ISVAJHMHOVJDqkDHkKcQ0tpKh9UqcGPfEAMwAUZQoBYJJGFqGPyn02ytakqx2UkEAYJwDAcWtwe+HabtVok3Xtwmv2lmlkpIBxUzKXPeFKlK0fTaUvhK0H1VViafU4n0UsNyQdK+3HmCiAxhN3HxZ2k9Sq03o501NBtRN1eslVU7SKDcj9CqFPs+TqUw4qWYnJCjpk56u15lL4StGZGmykw3xJnmUKKkhjE9X/az1ULo0BtbqQdT29TQLk1H1TpOmGlWhExMTMpPWlbVx2zeN2zjsra0vNTlPsmi0tugytNmKbOmeqlUlnZBmeqkqqm+nMh/Tb6e1tv2dsO2T2jMpCJm1do22625hAAAQ/Q9HbNpjqQAtwAJclVAAOLGB2Wr8xDmAV4JGPBx5+0BYOQD7jMAgIK8EjHg48/aAsHIB9xmAQEFeCRjwceftAWDkA+4zAIBAIBAIBAIBAaLv1/6T/3gMFTrx89C/iGej1r76ztPolyVzRO2arV/kblpRyY16q9m3IsPhHqumTti65SZnmH3lyy2HvwyW5VpRdgM2y7NOrF1Gt6ftLUGz7YvW2anLGVqdv3NRqfXqLMsKZLK2BI1CXeYLIySylxDiGU4TLoZSEhIdAG7v4XDpcblnqlcVp2FcG26/Jz1Hmri0YqyKLS1T6lKdbfdtSfam6EFh4hThlmJRbgwlK2gBgOo+e+HZ6xGzeozla6dfU9rk/TZHD9Ksa/q3ddnASssf+GkHlOLvq2qk4JZtthyXlKHT5QLCky/Fn00AJO+f4rXZOp2X1t2dW9uptOhJR6Vety06LcTtYlWAlp+bW/prWpO85hycShcyh+ctmTqDnqhybp8nMqdl2g9xtv4v+6tI5uSt3ej019Y9IKs642mcnaTNV20vRKcImXGLc1LtOTqU82lwOemg1MPFISl11TnJRDsD0o+Lk6Seof4WWuWua3aTTjhaQ+q8tL36lSpUqCfUWqdsyqXJPLYbUVAL/ZDalIAUWkE8Eh2F6ddebpF6oql0Wtvn0XYdmVpabYu2erlguIcWBhL7l8UO3pOVwThwTc2wtohSXUIWkpAc27Q3m7Q9QvRVYm6TbreImQhTH9mdbdMq6Xi6ApDbQpN0ThW8QoYbPE5IGYDkNIVqm1OVZnKZOSlRlXkIW1MSE3LTbS0LSlSFocl3XG3ULSoKQ5LrebcSQtta0EKIbz8Ukq4pRyIOCOaUEH2IcKCD+hwfcA9oAFKKVKUniQpXypJcPHJwf3aVfOR3KADg9uR8wHlMwkgcQSQeOCpsK847oK+aSPqhaErSQQpIIIgLU+EnHFY/VSHAn6/xBCh9PP6wE8kqBV83fv2bdIOfZXAch7EDBGD4MBYX2Hb6D3H9CAR/IgEfUQAugA5Sv8ATi26rP8AiG8f4jI/XHeA0S537hQUrulJQ6fPcAlLZ4nv3BGRAaqXCPzpCQEgk/vCPHuppI/rn9PpAaZmm04KihIIyFLcCAQfqCsJB7d+xx38wEh5DhUpv96gHBcacYWkH6hR9YEY/l75AxAQJhrISpxtKsd0hxLiwr2CG+ZKc/xHj278fpAfOrt1w0b0/S8b81Y0zskSpWmYN339aVtej6RKXfVFYq8otpSFJIUh1La0qBStKVAgBw81C6tfTO0uRMLvTfLtlk1SxdL8vRNXbOvKda9NSkrQ7T7MqlfqDL6CkpclnZVDzawW1oCgQA4DaofE/wDRt01TMiS3K1HUyZlkLUZfTbTm9qoh5SCQWJepV2k25SHJgkYSj9oJbUe6XikhRDrd1Q+M02dS80KVt/2tbhNZ6vM+qzSpKuroViPTMxyKGHWqbTWb7mZtt3KVpbQ424pKsAhXeA+BTPXy67+6xw0TZv0oa/atOqiWzQ7wvLT6/wCoIDcyn1JWaXWr5ZtfT99DbC2lqmWU/s1/u7LhDCkpAbSY2M/FWb6/URuI3aWntKsKvcWqxa9v3RJW3MIk5r947LC1NLpI02eeZQ4WCg3awgqQUtzLiOLhDkxt8+EG26/tiWvXe9uc1s3TXcsNuVehs1h61bYn3W3EPIK6kqo129UyjTgUhMiu6DKOt+WGs8QGSZtk6fGzLZjR5ei7bNvWnGmZabQh2t0ugy01c08oNBCn6hcM+mZqk2+7x9RxbkyUqdUpwo5KMBikfGc3DO1ywen5t7t5z8TW9S9X9Q6gabLcvWcmG5Ow7Rt5cw0yWmphx+cvKqtSySyhDDiltNpcCiUBmwWRb8naFo2tatPSUyFtW7Q7ekUH0wUSdGpsrTpZJDSG2spZl0Ahtttvt8iEJwkB7UUZJOfJz4+8BYGAB7DEAgIKMknPk58feAsDAA9hiAQEFGSTnyc+PvAWBgAewxAIBAIBAIBAIBAaSxlKlewIx7/r/WAwmfjNdNK9T9ENj+6e1W/wtZ0V15uW0FVhhCy7JVW9aHS7xsxLmAns1UbAqM206F4Ew6GQW1AlwMwrQvU2h616OaU6xWrydtfVbTGwtTLbeLiHC9b992pSrpozpKQlXNcpUkNrBaQoLbJKE54JD64ptLgAPFSCefFaSrue4IyRxxnsMdvHjtAQuWbWMFLak8isNraQtsKJJKwCAoLOfzc/OSAPEB4/DJz8p4AAhPEYUCclRLoPrEKJ7hLiDjtnwQHqlx6d2ReMq/I3badtXNIzTKmJqSr1ApNXl5lC0lKy9+0JSZfWpWSSov5JJUSVEkhwK1V6O/S+1pE05qLsU2y1ioziXUzNck9J7XoFxul5RW88q5KBJU24BNOrUXHZtNUS+48S8tanCVEOvDUX4UzovX4Zl6lbf750xqEyFj8fp5rhqsyGORUQZalXjdF5W/LhBV8jDNIblGwEoalkNIQhIcJbz+DD6f0wX1aZ7mt5OnrjqlOMys9dOl910eXeP5Fok5fTO1qk4GxhKS7WlvKSkeo8twqcUHHWofBv3pas8uoaKdWfWCyJlHJcrLVrQ6oVJ1agSWyut2xr/biWV/l5uCiklXzJaQCEANkj4bnrUacuKd0c6310Sf4dPpyH7QvXcRp92a+RlhTVEu6825PghKEFthLzTOODQWhKSQlHSA+Kvs88rZ6vVkXczLD1WmavuV3AVadd4D5A6xdmhs+wp1QAK8zb4UvkPWdJ9RQeTs5+MdtAcqNvY02ugN90etqFppU0OoT+XinUDSWRWUqABH4pLb+MF9ttzmkBrN6efGwUNJNO1d0iuNGO7aHti00452xyU9WLDp61lXkrdcUtRPJwqUSSElfxtkr+6EppJOlPyF1SunU2pwpOPUVyfZUorI5EmXYJJJLLR+QB4/b3xujfyCx9L3gj5A8mc6d4S6E9g6kJuplIDmOYAZaABwGmx8oDSXOfG6TCg4m3dKpHPzFK3enQeJPfiXFVJ9Rwe3d10k9ytfdRC00L43CrlSHbt0sttDhKj8vT4R6fI54JclKFVirgPlCx6nLGQpeeRANufxnd2ZFS3Q6XW16mA6pq5ttFMW2o/n5LsXTWZWFpUTyDSAhJB4AACA8/+2X8XJfKU/t7qe6a2YXXP3gRr1fVFUypZJWlR080Mny2pskpLcuC2gji0SkJyGqegh8RpfRLeqvW3mZVp5SvxUlbu4HdjdkkhtaiXFMyM5bVjywBJJQyhuWQE8UoDSfkSGi58JZvN1HwNcetBqJWW5n5p6RZ011K1CEz6nzPtom7v3EW+mUKlKVhx2QcODlbIOUAPqFn/Bc7aWg1/epvt3SXsoBtMyLToljWMlxKUpDjTIr395hZbKgr00rcmi2khJW7jkoOXOnnwgPSKtF1hy6Zbcnq2Gy2HWb91oNMamCkJCi7/dlbGnjyfUIKlpaeQkEkICRgAOwPSv4ero4aPmXXbGxTSOuvSymltPanG5tXHA60E8XuWpVfug+qVIStRSUpK8q4DwA7HNM9qO2fRiX/AAukmgWj2msvxQj0rH07ta2EBCE8UJSKNTZMgJSAlJKlEADvnvAfb2KVKSzaGmGm2m2lLLKEICvTSv8AgQt0uutJSOyQw4ylPhCUjAAazMjLsJKGkqQg5JCXHQVKPlbivUy6tXla3ebi1EqWtSiSQ3CWglISFK4jyBxAV75wkE5+vfJ+pgNvMBCOKieIAAACewABAA74A/0gMFPrNKO7r4lHpa7UqYo1GnaQzelF43Zb6u7Dv4G76vrpcTj4bK0NIn7Fs6lMOuPEqbQtl9xlYT+GIZ1csUFtst/kIQUZGDwKUlOR3x2x2ycQG9gEAgEAgEAgEAgEAgEAgEAgEBoqPZafcnv9oDo9+Il24vbl+kVu0tymySp64dNbVp2uttpWCuYamtHq6m6biepoShbhqBsWXu2QlG0AqUifQAlzj6TgfMPhjtyzW43pBbdJeanvxl06Apuvbrcy1OKVONq05q7VRs1khwlXps6ZXbYqZbkjjMKdISpAC0thkJ88dsHt27kZ/wAcDGf5dvaA1AcgH3GYBAIBAIDRWQT48EwHhTAWkAEoBUVHgpxvPI5OSy40onv+YkknuQYDyGexBccPbinK1Din6DkgpcUQOxUtalk9yrPeA0vSb4hK0hxSewW4A4od/wCEuhw4/wCoqJ8qJPeAtDCUjKTjknHZKUefqfRS0T/n/LHbAWloJ/iUrt35LeWk/wD+VurAH6d/5wEFKArPAZHbsVDwfoM4Az9MfpAV6SVfMQnKu/5QfPfz9YDz6QxjOfYKKikfoE8wAPpgDx28doDQLSQVA4Pc4wAjHf6FsIWRjsOS1H3JPeAv8OhTYQrBGc90hw9++P35e/xP+OBAeUy6UZCVup9sOOEJ/RKFKUylI+iENJQkYCUgAAB4KR3SST3OVEJUon6k80qSAT34oSlI/hAHaAtLIx+ZeD5HNRGPbiolAH6IShI8BIGAA8fhmv8AlP8AgcD/ACGAP5AAe0B4CQgkDwFdv5DwP6eYDcA5APuMwCAgrwSMeDjz9oCwcgH3GYBAfnTz7DbSnHyENNn53lrShlLafUU8tTmSAJdlp11xKgMcOBIzyAYJ/R6cVv1+JC6gW97iahYOglGvK17HqCyoop1SuKsf3X2KETbra0uuIsK1rybUlhtpJZnWnE+khSS4Gdu0lKQEpASlKglKQCAEjAAAPcADtg9x4gNcrwSMeDjz9oCwcgH3GYBAQV4JGPBx5+0BYOQD7jMAgIK8EjHg48/aAsHIB9xmAQCAQCAQCAQCAgoySc+Tnx94D1e7Lcot22zc1p3BJM1OhXTR6pb1dps2f+EnaZWqc9TZyTfBamUNys/JzD0tMulpwcXllTS8lADBn+GruWt7A+pl1FekbqHVphmXlbzuW6tJlzwWw1X5vS2dfYarckw66QkX5ojcdBvgupmnPSpVqSQUmfMowtQZ27Sy4ASj0wQCO+RgjIGMDH+Zx7wG7HgfXsIDzAIBAICCjJJz5OfH3gLAwAPYYgEBBRkk58nPj7wFgYAHsMQCAgoySc+Tnx94CwMAD2GIBAQUZJOfJz4+8BYGAB7DEAgIKMknPk58feAsDAA9hiAQEFGSTnyc+PvAWBgAewxAICCjJJz5OfH3gLAwAPYYgJ5DwO5zjHjvnB7+IDq+6xe7OS2VdOrc5rguebp9xy2n1Usyxgoltb9738l22Lcdl1pLpaep71QmKm44hlxS25UhXoeoFsh1J/CWbUJ7Rjp0VXXy7pSYav3d1qJV9R5qbnUETU1Y1NlmKDaHGbUtbj8tPlM7WmVlpkS7tVfbSh0hcy8GVUlvHflyyeWcDv8A4g4OfcAD9ICijJJz5OfH3gLAwAPYYgEBBRkk58nPj7wFgYAHsMQCAgoySc+Tnx94CwMAD2GIBAIBAIBAIBAIBAbZSQg5Li0fvfUJTgleQpPBwrCuSO/ygBPAJQEq+WAwTviMLCuvp6dTjZF1jtJKXNs0qduC2NOdZ/2WtMs3UbqsBkqkBUS0zMc5S+9E3Jq0Z4vSvpIes6jS5/aCnnWAGbZpZqTa2sFg2VqhYtXl65ZmoNp0C9rZqcopLjM3Qrmk2Z+mOpUhS0BxLLrjc2yFqVKPsKacyo5AfS0qGBnsCARnyRjyR5H8j/L6QFg5GR4PcQCAQCAQCAQCAQCAQCAQCAQCAQCAQCAQCAQCA2byyCRxUgfvFl0YUhKUD+I8k4UpXypQMk9z9CAGDV8TXrJdW9XeDsr6POidQmZ+sXre1v3rq01SFPepTWbhnnKXS260w2Ch5qi0Wn1a5XEuzcqlhtmXSpKEzqH2QzOdA9IbU0C0b0y0VseSZkLU0usm27LoEsylKW2pCg06UkwpKU4BMzMMOTaz/wAzvHvx5EPtAAAAHYAYA9gIBAIBAIBAIBAIBAIBAIBAIBAIBAQptK/zd/08f7/+fSA64eqzsbtnqFbGtdds1UlGv2/ctsit6d1MMhc9Q9TLRcFx2RUpBanGCj1arJCQqHCYZ/GU+YmJBawh1SkB0L/Cp7863c2j2pPTV10qLtP102e1ys0m2aHWHlipTVgtV2dk67QZNEyzLvTcza1xofYbQ249mmzSJpCJdpoNuBl+S/JRBW4l3IB5I/IrIJ5IIOCk+UkeQRAb3xAIBAIBAIBAIBAIBAIBAIBAIBAIBAIBAIBASSoH8vb6nl9PfGP+8Bxv3XbjNP8AaboBqpuE1QqcpSrK0utGrXZVXn3Et/i1Utl56myDCVH5pioVRcrIpCEuOKm3pdoMr/Egthh8fDb6Bag75N3+6/rU7h5ScmKle953fZWiQqSeaZCaqku21U3aWp0pS1JWjar1KtWSRLyYZcn0T0+h+XcUuVUGcTLlDi1FB7KyQOOMDOR2z2x4x9PH0gP0IBAIBAIBAIBAIBAIBAIBAIBAIBAIDaOIADiu5KiBkFWcNLU62M5/hcWo+MFHyEdswGBl119AtQ+k/wBRnRDrN7ZKMuVsO8bxk6JuCodHbUzSZW6ZtpiVnnalLSyH2GaZqBR1fhUPvyam2rjkXwsTTkwFIDNU2y7idON02hmmO4DSaqMViwNUrQpN1W7NNLaSptufaZbmqbMy7S3lSc3RJ5btOq0s6Q7ITLCmloX5AcgwQfB8diPqD7GA8jwPpAIBAIBAIBAIBAIBAIBAIBAIBAIBAIBAeAQc4IODg/z9jAfnTs0400rDDyuXLCkel8qUAlTiytxttDallpltSnAouO+o8liTamJpoMFf4iDdVqH1EN4+hfQ92j1N+tTEzfFGqe5Ss01fq0iWutson5W2anNU78Q6xQNLbeJurUpE0803L1ubp0iphibodTWyGYrs32w6a7OduGk+2vSuSblLQ0rtOm28w4ZP8PM1ipstIcrNw1MlSlu1Ws1NyenZp51SngmYbYWpYlwpYcoktpSSoJAUe6iMjKj5OCT5OYC4BAIBAIBAIBAIBAIBAIBAIBAIBAICeIwQe4JJ/wA4DjLuy2w6Wbvtv+qu3XV2hyVVsjVG1qlbVTU+02X6bNTDL01Q7kk3eKnGJ6gVpbc5T3kqQpl8OqS4gLWkhhR9ILddqf0PeoFqH0gd7VbcpugV/Xi5NbeNTK168pbFMuO45t9y0JxmoTip2XlbS1alUmReU3PN06i34h6Tn5n0Uzs5IBnwyCnE9lqU4FLcS06VpcDyWyQpSnEDAeBBDiVJS0XM+i86ghZD9RKwpIOCkkA8VDCgSPyqxkAg9jgkA/UwFwCAQCAQCAQCAQCAQCAQCAQCAQCAQE8gPPb2+uR79v8ASA2T6yEuengLAU5wK0h0tJWUuOhKuICQe6MrAWP4kn5YDov66HVxtvpa7VKrXLYqVGqu6HVFmoW/t7sqfbYqCmKw2wmTrOpNZpKRMepb2n8vOsVJchNLbYuCvTdv0sPu0ibuFqlBwV+GZ6VF27cdLbp6gG6hioVTd9u6Zmbplf7W5qF46babXNPf2mamLjnJ5ZmEag6oOTsrfNyAMS01L0So0+RnnXZmeq1MaDLEZbQ22hLaSlIQkJCuRWEgAALUsqWpQH5itRUT+Yk5MBqwCAQCAQCAQCAQCAQCAQCAQCAQCAQCAQGzfbwFAE9ySCn8xStRU4hwr9QLQpROE8UhIwkYEB0UddDo/wBmdU/bi4mgMUq3N02kEpP13Qq+Zhf7OE+7M8XZrTG46gwUvNWveM0w6inzThmXaFX1M1CUQ21O1OVng64Ph+OsjeF/Tk70wd/czUbC3k6EuTen9pVbUdKKVWdTKJZMmKUbSuRE8+2XtRrYYkUtGWNSWq4qe2a7J1SZmJlVNQGXiw8lS1DJSsOcPTdKQoLPzpQtSFOALKMnBweWUjMBv0rCkk4II8g4yD5wcZwfof1z5gKByAfcZgEAgEAgEAgEAgEAgEAgEAgEAgJyf4QDjscnHf28H/aA0HVA55KCAkErX5QgAnjknj8xBBxjA9z2yHBnfzvx0L6eu3W+dweulxSkhR6BKTTVsWwCkV3UK7RSwqi2Zbsm4QqpzlUmltza1tlEvKyQW5MOBZLSgw+Olnsz1x64m96udXDf/bs0Nttm3NMtbfdHa6lz+zNzTFtvkUOUp1NdcZYd02shEx+NrVTRLPNV+8nXEplJun+sJsM9uQp6WCtIWpfDi2C7+8bRxmlzbjjDWUoYU8+tbnFA9FrjKtsNNy0o0xAftjx5z+pxk/qcAD/IAfpAIBAIBAIBAIBAIBAIBAIBAIBAIBAIBAICeIPnv7fTA9u3+sBsphjDbvEjk4FgHgCEhQACeJzlAUA6oZBLxU4FJ5FMBi59ebogTe8SVlt6mzyZTpzvq0ial7gkalRplujPauU61UpnKbJVCelkIdRfNstyubWrSmZl6bKlSdRbnW30lAfk9DfrwN7pidk29zOku+vS8VCzHWLralbWa1jmrdaEj6Jkp8sCm6hU1Eg83WZF6bWisTwmJqnOlLzbawynpJ5LrXqNJWplaXFMqBSA62lZQlTYWtKgkp4qJdDZ7jjz/NAfpDOB4JGAe/bI898f9oDzAIBAIBAIBAIBAIBAIBAIBATyGCT2AJH+UBtVKUtK0FB+ZQAWkrKcuOFKOKm21q+RIy8pSUoaV8pWoclpDhbvc30aC9P7Qq4Nd9w93061bWo0pMS1ApS5thy4b9u2YQ6qkWpatFUUz1XqrgaW9PJbbCZBlqYmVpdlpScelgwpdvW3/dp8TnvHld2W6Kn3Tpb059K7kmJfTmwZeYmZGVuWXlJ5TyLZoKpj05Ksz020xLvahXrK08ysvUXJqmUmVdllIfAZ+GmWm9laTWZbOm+nVu0e0rFs6h0+gWrbdAkG6bSaRQqdLtNSUjJSjSilpDXAAKzl2WDTM0mYdbMysPoyUhOcd8kkn3J/l2/yAgKgEAgEAgEAgEAgEAgEAgEAgEAgEAgEAgEAgJUkKGD/AKZgNjMMr5NrS6pCm+aklCEDK1JKEFzklYWltv5AnCSr6rHYAMZrrXdAWyN/CH9y22GpU/RbfbZvoVO3LpkVrt+3dUZmiNJm6VQ75nKOkP0q7UFhpVsXv+UFTcrWZGZD7k2kODXS4+IS1E0Q1HT06us3R63orr3Y78vaVt7hb5pjclb1cekXTTJWlavJQqTlmJupNssvUDUKgz9Uti4JqYLk8qilbTCQzM6BVpKrU+Vq1LqsnWaRPystUKXVadON1WSqlKmmW3peoS1Rkg5JTqH2nEuIekXJiWfSpDzb5bcSoB7KFoIB5JGRnHJP/Ykf5Ej9YDwVgd+xHuk5OP5fr/59ICwcgH3GYBAIBAIBAIBAIBAIBASVY8DP07nAz7ZP/bMBt1rCkqSOZUSsgITzz345CkngP5KWlQB7pGRkOnPqj9Zzaj0ubAn5vU+st39rbVqa+7p3t9s6qSb9+XY+Zc/s+Zr4l3CLJstVXcSmauSqS8xMzUklSabR6sHQYDGK2k9PHfl8Qfr7b2/3qh1S4NL9mlCnH6roxoFS1TVvSV32u1NMzEtb1j27Mr/bdt2DNKZlX7i1Or8rM3Zc0wlv+zEiKQKfUpEM73S/SzT/AEesW19MtL7OolgWFZlDkrcti0Lep8rTqNRaNIyzMoxTmJGV5S6UJal2Q+ttxTsw42pxcy5zKiH0ziOfP9MY/wC/+XaAoDAA9hiAQCAQCAQCAQCAQCAQCAQCAQCAQCAQCAQCAQCAniD57+30wPbt/rAbKZZV2KHFj8wUkqUUkLJJICVIy4nCQ2p71m20jilrBMB1XdTDpHbTup/p27b+t9ps0fUyiybrWneu1tychKag2NUm0F+ltTU6Zb06/bom3SqaolTacpbkssNBlp5KJ1IYk9say9YT4aW9adp3rdbFX3h9OAVhti2roamalV6TaNDdmShBtm5FLm6np9W5an+k85addRU7eQ4k02lT7suhE04GXpsA6suy3qSWhJVzbxqjT5i8gw07celN2TUpb2pNuuql0PTH4m3HHnHqk006pbPr0T8ewFIKnFMt4MB2aSwDQcIWFJU4r51rASk8jybOCoh1s/KtCuJCgRnscBuw82QCVpBIBIyO36diodv0JHsSO8BqgggEdwRkH3BgEAgEAgEAgEAgNNTgT9Uecd14P+WD/jASl0qHyp+b2UVJSfmIJBKOZTjuFhv01ZHFZHeA+d6m6rad6R2XXr81QvO2bCs23qfMVOs3Jdlcp9CpUjJy6VrWVzM6+3zeU2g+g02hX4pRCJdTpUjkGG/vy+Jb1A1xvaZ2g9GXS26Nc9WbhfXa0zri3bE7VaNRhUHTJPztkUWTQkuql1LL5uavTMlJy6QJlLUyW1IAfTumN8NtOM6gp3r9Wq439ze525K0xdX92FwVV64bLtusOyjK01a96q42wi6bho7/ABbp1FlUylp0CYZWxISc9LIZdgMvqk0uUpbErKU9hmnyUmywxKU+VlWpWRk5eWlxKy0nKy0v6aWZGVZCG5STKnWZFttqXkDLyjLcuA/fSgBKfmKlAD51Y5KIH51BISjJPchKUpyeyQMABcAgEAgEAgEAgEAgEAgEAgEAgEAgEAgEAgEAgEAgEBPEHz39vpge3b/WA0/SVnIWAQoFJCByCQCCgqzhQIJCSU5T2J5EAwHpl9WLa2oVt1Ozb2oNGuy1a3JzEhV6BcNKkK1SqjJzSSh+XnadVGJunzDakkpbKpT1ZcE/hnGTkwGJnvx+Fp05r12zm4npmaq17Z9rzJTjlelrTp1VrMnpvWq0zMuzzbNHm6dP0+t21NvzRWG22pudpDYITMSM60lSFBwftPrYdYnpEXBRNLOrZtbujWvSaSm2KXSNfqVLty83UpSWUiRTOyWqVHplQsW4Ki6yymb/AGJXJa37jm3HVJqFOpM449Kshkn7KOur01N9jFLp+l+4K3LJ1DqCGEu6Va1qZ0yvpE0820r8PT/2ytFr3M8t1xTTbFr3DVJ5Sm1etT5RRS1AdxDM4y42hbTkutlbbSmnUTDZQpC0JUhRxkJDgILXpl3mkgqKM4gNcTAPdSVNgJKl88YQQooKS6nnLlQUMKSHyoe2RiA1OaCAoKSQcYKSCDnxgjzn6GAoEYz485/T+f6/pAM57gEg+D27j/OAnmB9D/T/AHgAWkgn2z2z7f8An+HnxAQH0EEgj5SQQVJB7e2SB/mU/qB4gJD5IBSgEZPbmklWAr5WiAUOOJKeLiQtKUKBHNQGSHGfcVu/2z7ULamLt3Ha2aa6O0RqXfmpZ297solLnquqXQtb0pQKKqeVX67PIKSj8NTqU644shLPqHsQxY92PxZunlYuf+5Hph7fL+3a6vVt2bpFsXHULXrktbTlTdedYZqVt2FJSk5fdwNsrKHjMVNigU5DHFU9KyJU6y2HFnT3owdYLrEXpSNZOrzuCuLQjRx+cZq9H2/W3MSjVWcp8y4J9Eg1Y1PnHbRs6UXLuolWp6tu3NcjTaQ2JeRmkLwGXDsb6bG0Hp7WPJ2Xtn0jodozDcs0zWL1nWVVW/LkeEuhmafrdzzo/aswmbcSuYXLl1tsOOKDiXDyEBz7DIx/MJTxPNTaUpxwCWlLLaVJAHzJQMkZI+kBqAEDGQTgZJSMqx9Tx4jJ8nAAz4AHaAqAQCAQCAQCAQCAQCAQCAQCAQCAQCAQCAQCAQCAQCAQCAQElIJBP0+mP5/7wEKayvmlRSrHEH5lYGQSEpUotpzjBKUA47ZgPT7ysm0r6otTtu8bSty8KDWZJ6mVii3NRqfXKbVKe8hTb0nOydQl32JhlxClJUh5DiSCcgnwGObvJ+FW6Ym6SZqt36bWtdmz/U2fXMzYrWgM/LS1lTNQcddmJaYqeltzsVe1pZEu+5ydRY5sR+YAKEzcuniEB1Nr6MvxF/TbcVUOnd1BmdxWm9GWp2kaV164F2u89Ly6lIUw5pDrM/e2jsq8thpLT/7Iv39oqWFtSjLHFBAb9rr89ezZVzpe/bpSK1AotGCWJq/LPs3UbSY1BmTDbT8w7flsSurml8ypamnHE/sy2KZIPc3HZSYRKKlVJDkTpn8ZtsqqTUtI64bTt2Wj1wOvJM1/ZqSsLVC3ZN1w8lB+pVG6NN7kWyEcnErlbQnHVtgENEqwA5z2p8V/0VrlYSqsbhNQ7Dcd4Yaujb5rPNrStQBKXV2bZ12SrakE4cKJlxtJBKHVowsh9YlPiZ+iXMtBad6tEQnikgzGjuvUu4pJTkKLUxpq08gkdyh1tt1JyFtoUCkB63XfiiOiVRUu+lu9qFcmU8i1IW9oHuKqT8wR4DLyNLE05KVfwF6oNjGMmA4m6ifGH9K+0DMyll2nur1dnsuNyZtLSy2aDT5h9K1IS28vUDUK0a5LpWQDybt6adbBythKwUAOE9w/Fvblda6jN2dsL6T2qF/3DMuuNUKu3vcF4Xe89MlxSUmf050o07lkEpHFTza9UUuBRU36qlAuEPW3U/F8dSEtMTEtanT+0pupBTMOy7lA0KmqXIzf7xxCmg/qnufkgyw96SWHUtyM4U+mt5halGA+8bf/AIRCz7muhGqHUl3mawbqL6n3WJu4rWsudrNpWzOuDDrqK7qJeVXuO/7llZmYU6v06Uzp+/xWl5yWlHVei0GTztQ6f+z/AGR24bZ2w7edOdIZN1iVYn6tQ6M3P3bXTLMoZS9c151ddQuq4XsI9RBqdamWm3ipxKFKOSHMtuWSlPdanOWFLWtDYW6ckj1Q2hDa+KeKUqDYdAQMuE5JDchOAPBIAyceTjue5J7/AKkn3J8wHmAQCAQCAQCAQCAQCAQCAQCAQCAQCAQCAQCAQCAQCAQCAQCAQCAQCA8AYJPkn6/9sZ/SAgt5/MQoEkq7YJH8KcpIykZOUrCwrJzAbVUqkjikemEpDaQyhLaQ3jiW+GFI9MjskJCVJT25nzAfANSdpu2TWJb7urG3HQrU2YfStKp7UDSaxbvqIUrKUuIqFdoU7OpcS2SlTgf9VaiVqd5FXIOFN29DnpNXw445cOw3QlZdKypNFolVtRsBZJKW5e06xRJRtKSTwSiWShAwlCEoSEgPkL3w43RVm1KdmNhVhKUFE4a1D1vlEZJJPFiU1PZl20+zbLLTKE4S22hASkB7Lb/w+vRuthaHaRsJ0nStJBCapW9SrgZUBjAelrgvmpy76j/Gp5pfM5UoEkwHKzT3pidPLSwS5sPZLtgojstwMrOO6L2BWKlLFsAN/hqnXKFUqgxwSAEluZChjPInJIcxqHatDtanytHtehUe26PIpS3JUigUyWo1LlWkJDaW5eSpaZNhpCGwlpttCEsNNJShtlCEpAD2L0ApCUrPIApUA4hDhKk5IDilhXPiSOJTwWAPzk94Cy0k4z3wSRz5OYJOeSQtSkgj+HIPEdh27QFJSUpAK1LIABWsJ5KIGCohAQgFR7nilKc/lSBgALgEAgEAgEAgEAgEAgEAgEAgEAgEAgEAgEAgEAgEAgEAgEAgEAgEAgEAgEAgEAgJwr/m/oIAAQCM+c98eM/4/wC3fvAAhOO4yfqe4z/WArxAThX/ADf0EBUAgEAgEAgEAgEAgEAgEAgEAgEAgEAgEAgEAgEAgEAgEAgEAgEAgEAgEAgEAgEAgEAgEAgEAgEAgEAgEAgEAgEAgEAgEAgEAgEAgEAgEAgEAgEAgEAgEAgEAgEAgEAgEAgEAgEAgEAgEAgEAgEAgEAgEAgEAgEAgEAgEAgEAgEAgEAgEAgEAgEAgEAgEAgEAgEAgEAgEAgEAgEAgEAgEAgEAgEAgEAgEAgEAgEAgEAgEAgEAgEAgEAgEAgEAgEAgEAgEAgEAgEAgEAgEAgEAgEAgEAgEAgEAgEAgEAgEAgEAgEAgEAgEAgEAgEAgEAgEAgEAgEAgEAgEAgEAgEAgEAgEAgEAgEAgEAgEAgEAgEAgEAgEAgEAgEAgEAgEAgEAgEAgEAgEAgEAgEAgEAgEAgEAgEAgEAgEAgEAgEAgEAgEAgEAgEAgEAgEAgEAgEAgEAgEAgEAgEAgEAgEAgEAgEAgEAgEAgEAgEAgEAgEAgEAgEAgEAgEAgEAgEAgEAgEAgEAgEAgEAgEAgEAgEAgEAgEAgEAgEAgEAgEB//2Q==;" vertex="1" parent="9">
                    <mxGeometry x="450" y="90" width="245" height="241.82" as="geometry"/>
                </mxCell>
            </root>
        </mxGraphModel>
    </diagram>
</mxfile>